<?xml version="1.0" encoding="UTF-8" standalone="no"?>
<svg width="384px" height="192px" viewBox="0 0 384 192" version="1.1" xmlns="http://www.w3.org/2000/svg" xmlns:xlink="http://www.w3.org/1999/xlink" xmlns:sketch="http://www.bohemiancoding.com/sketch/ns">
    <title>Untitled</title>
    <description>Created with Sketch (http://www.bohemiancoding.com/sketch)</description>
    <defs></defs>
    <g id="Page-1" stroke="none" stroke-width="1" fill="none" fill-rule="evenodd" sketch:type="MSPage">
        <g id="link" sketch:type="MSLayerGroup" fill="#FFFFFF">
            <g id="Group" sketch:type="MSShapeGroup">
                <path d="M192.5,48 L192,48 L192.5,48 L192.5,48 Z" id="Shape"></path>
                <path d="M304.5,0 L256,0 C256,0 282,17 287.6,48 L304,48 L304.5,48 C322.1,48 336,61.9 336,79.5 L336,111.5 C336,129.1 322.1,144 304.5,144 L192.5,144 C174.9,144 160,129.1 160,111.5 L160,80 L112,80 L112,111.5 C112,123 114.5,134 118.9,144 C131.5,172.2 159.8,192 192.5,192 L304.5,192 C348.7,192 384,155.7 384,111.5 L384,79.5 C384,35.3 348.7,0 304.5,0 L304.5,0 Z" id="Shape"></path>
                <path d="M265.6,48 C253.5,19.7 225.5,0 192.5,0 L80.5,0 C36.3,0 0,35.3 0,79.5 L0,111.5 C0,155.7 36.3,192 80.5,192 L128,192 C128,192 102.2,175 95.9,144 L80.5,144 C62.9,144 48,129.1 48,111.5 L48,79.5 C48,61.9 62.9,48 80.5,48 L192,48 L192.5,48 C210.1,48 224,61.9 224,79.5 L224,111.5 L224,112 L272,112 L272,111.5 L272,79.5 C272,68.3 269.7,57.6 265.6,48 L265.6,48 Z" id="Shape"></path>
            </g>
        </g>
    </g>
</svg>